# xmcd
#
# Track frame offsets:
#	150
#	15406
#	27929
#	42911
#	59016
#	78964
#	92456
#	113520
#	125451
#	137342
#	151728
#	171978
#	190084
#	204266
#	214310
#	227515
#	243133
#	258330
#	274155
#	290808
#
# Disc length: 4072
#
# Revision: 1
# Processed by: cddbd v1.5.1PL0 Copyright (c) Steve Scherf et al.
# Submitted via: dBpowerAMP V4.0
# Normalized: r0:TDELIM( - )
#
DISCID=070fe614
DTITLE=Various Artist - Absolutely Uted
DYEAR=1900
DGENRE=Country
TTITLE0=Scrubbashin' - Lee Kernaghan
TTITLE1=Steve Gibson - V8 Utes
TTITLE2=Troy Cassar Daley - V8 Town
TTITLE3=The Fargone Beauties - Highway To Hell (Ballad Of Jed Clampett)
TTITLE4=Adam Brand - Nothin's Gonna Slow Me Down
TTITLE5=Keith Urban - Where The Blacktop Ends
TTITLE6=John Wibberley - Eyre Highway
TTITLE7=Josh Arnold - Headin For The Country
TTITLE8=Red Rivers - Baby Blue Buick
TTITLE9=Tania Kernaghan - The Mongrel
TTITLE10=Wayne Law - Drive
TTITLE11=James Reyne and James Blundell - Way Out West
TTITLE12=Crakajak - Country Born
TTITLE13=Col Finley - Circle Workin Gear Jerkin Dust Shaker
TTITLE14=Adam Harvey - Treat Me Like A Dog
TTITLE15=Steve Forde and The Flange - Modern Day Outlaw
TTITLE16=Colin Buchanan - Tough Job
TTITLE17=Michael Bryers - Saturday Night
TTITLE18=Colin Greatorix - When The Sun Goes Down
TTITLE19=Dale Juner - Bundy Haze
EXTD=
EXTT0=
EXTT1=
EXTT2=
EXTT3=
EXTT4=
EXTT5=
EXTT6=
EXTT7=
EXTT8=
EXTT9=
EXTT10=
EXTT11=
EXTT12=
EXTT13=
EXTT14=
EXTT15=
EXTT16=
EXTT17=
EXTT18=
EXTT19=
PLAYORDER=
